<svg width="185" height="47" viewBox="0 0 185 47" fill="none" xmlns="http://www.w3.org/2000/svg">
<path d="M0 0H9.9739V11.9819C10.7683 11.5994 11.5847 11.3052 12.4232 11.0993C13.2618 10.8933 14.1223 10.7903 15.005 10.7903C16.6967 10.7903 18.2634 11.1066 19.7051 11.7392C21.1467 12.3718 22.3898 13.2323 23.4343 14.3209C24.4787 15.4095 25.2952 16.682 25.8836 18.1384C26.4867 19.5947 26.7883 21.1394 26.7883 22.7723C26.7883 24.4199 26.4941 25.9719 25.9057 27.4282C25.3319 28.8846 24.5229 30.1571 23.4784 31.2457C22.4339 32.3196 21.1909 33.1728 19.7492 33.8054C18.3076 34.4232 16.7261 34.7321 15.005 34.7321C14.0782 34.7321 13.1956 34.6439 12.357 34.4673C11.5185 34.2908 10.7242 34.0407 9.9739 33.7171V34.3349H3.19959V6.04613H0V0ZM14.5416 16.8806C13.5707 16.8806 12.6954 17.1013 11.9157 17.5426C11.1508 17.9839 10.5035 18.6165 9.9739 19.4403V26.2808C10.4446 26.9869 11.0699 27.5606 11.8495 28.002C12.6439 28.4286 13.5266 28.6419 14.4975 28.6419C15.2477 28.6419 15.9612 28.5095 16.6379 28.2447C17.3146 27.9652 17.903 27.5753 18.4032 27.0752C18.9181 26.5603 19.3226 25.9498 19.6168 25.2437C19.911 24.5229 20.0581 23.7138 20.0581 22.8164C20.0581 21.9043 19.911 21.0805 19.6168 20.345C19.3226 19.6095 18.9254 18.9843 18.4252 18.4694C17.9251 17.9545 17.3366 17.5647 16.6599 17.2999C15.998 17.0204 15.2918 16.8806 14.5416 16.8806Z" fill="black"/>
<path d="M29.4363 0H39.7411V13.5928C40.6091 12.7984 41.5579 12.1805 42.5877 11.7392C43.6321 11.2832 44.7796 11.0551 46.03 11.0551C48.7809 11.0551 50.8846 11.8275 52.3409 13.3721C53.7973 14.902 54.5255 17.1454 54.5255 20.1023V28.2888H57.8795V34.3349H47.6629V21.6469C47.6629 20.3671 47.3466 19.3594 46.7141 18.6238C46.0815 17.8883 45.265 17.5205 44.2647 17.5205C43.6027 17.5205 42.8819 17.7044 42.1022 18.0722C41.3226 18.44 40.5355 18.9769 39.7411 19.683V28.2888H43.0952V34.3349H29.4363V28.2888H32.9668V6.04613H29.4363V0Z" fill="black"/>
<path d="M74.4071 32.2166C73.5391 33.0257 72.5756 33.6877 71.5164 34.2025C70.4719 34.7174 69.2804 34.9749 67.9417 34.9749C66.8237 34.9749 65.7939 34.7983 64.8524 34.4453C63.9257 34.0922 63.1239 33.6141 62.4472 33.011C61.7705 32.3931 61.2409 31.6796 60.8585 30.8706C60.4907 30.0615 60.3068 29.2009 60.3068 28.2888C60.3068 27.3179 60.4466 26.4573 60.7261 25.7071C61.0203 24.9568 61.4028 24.3095 61.8735 23.7653C62.359 23.2062 62.918 22.7429 63.5505 22.3751C64.1978 21.9926 64.8671 21.691 65.5585 21.4704C66.2647 21.235 66.9781 21.0732 67.699 20.9849C68.4345 20.8819 69.1333 20.8305 69.7952 20.8305C70.8544 20.8305 71.7444 20.8672 72.4653 20.9408C73.1861 20.9996 73.8407 21.0879 74.4291 21.2056L74.4512 19.33C74.4512 18.5209 74.3335 17.8221 74.0982 17.2337C73.8628 16.6305 73.5318 16.1377 73.1052 15.7552C72.6786 15.358 72.1637 15.0638 71.5605 14.8726C70.9721 14.6813 70.3101 14.5857 69.5746 14.5857C68.8832 14.5857 68.2212 14.6372 67.5886 14.7402C66.9561 14.8285 66.3603 14.9535 65.8013 15.1153C65.257 15.2624 64.7495 15.439 64.2787 15.6449C63.8227 15.8361 63.4328 16.0421 63.1092 16.2628L61.7632 13.4162C62.3075 13.0632 62.9033 12.7395 63.5505 12.4453C64.1978 12.1364 64.8745 11.8789 65.5806 11.673C66.3014 11.4523 67.0296 11.2832 67.7652 11.1655C68.5154 11.0331 69.251 10.9669 69.9718 10.9669C71.2957 10.9669 72.4873 11.1287 73.5465 11.4523C74.6057 11.7613 75.503 12.2467 76.2386 12.9087C76.9741 13.5707 77.5405 14.4166 77.9377 15.4463C78.3349 16.4614 78.5334 17.6823 78.5334 19.1093L78.5114 30.5396H81.049V34.3349H74.4071V32.2166ZM68.8464 31.5325C69.3907 31.5325 69.935 31.4663 70.4793 31.3339C71.0236 31.2015 71.5385 31.025 72.0239 30.8044C72.5094 30.569 72.9581 30.3042 73.37 30.01C73.7819 29.701 74.1276 29.3848 74.4071 29.0611L74.4291 23.8976H69.6629C68.8685 23.8976 68.1403 23.9859 67.4783 24.1624C66.831 24.339 66.2647 24.5964 65.7792 24.9348C65.3085 25.2731 64.9407 25.6924 64.6759 26.1925C64.4111 26.6927 64.2787 27.2664 64.2787 27.9137C64.2787 28.5168 64.389 29.0464 64.6097 29.5025C64.8304 29.9438 65.1393 30.3189 65.5365 30.6278C65.9484 30.922 66.4338 31.1501 66.9929 31.3119C67.5519 31.459 68.1697 31.5325 68.8464 31.5325Z" fill="black"/>
<path d="M102.122 16.3069H97.9296V14.8947C97.4441 14.8947 96.944 14.9903 96.4291 15.1815C95.9289 15.358 95.4582 15.6375 95.0169 16.02C94.5755 16.3878 94.1857 16.8659 93.8474 17.4543C93.5237 18.028 93.2884 18.7121 93.1412 19.5065V30.5396H97.0249V34.3349H85.6829V30.5396H88.8383L88.8604 15.2698H85.6829V11.4744H92.9868V14.6299C93.2516 14.1591 93.5458 13.7251 93.8694 13.328C94.2078 12.9161 94.5755 12.563 94.9727 12.2688C95.3846 11.9599 95.8333 11.7245 96.3188 11.5627C96.8189 11.3861 97.3559 11.2979 97.9296 11.2979C98.6946 11.2979 99.4154 11.2979 100.092 11.2979C100.769 11.2979 101.445 11.3126 102.122 11.342V16.3069Z" fill="black"/>
<path d="M113.486 11.4744H118.848V14.8064H113.442L113.376 28.002C113.376 28.8993 113.479 29.6275 113.685 30.1865C113.891 30.7455 114.222 31.1353 114.678 31.356C115.134 31.562 115.649 31.6649 116.222 31.6649C116.84 31.6649 117.385 31.6134 117.855 31.5105C118.326 31.3928 118.841 31.2015 119.4 30.9368L120.349 33.695C119.643 34.0628 118.9 34.3497 118.12 34.5556C117.34 34.7763 116.421 34.8866 115.362 34.8866C114.362 34.8866 113.486 34.7616 112.736 34.5115C112 34.2761 111.375 33.8716 110.86 33.2978C110.36 32.7241 109.985 31.9592 109.735 31.003C109.485 30.032 109.36 28.8258 109.36 27.3841L109.426 14.8064H105.785V11.4744H109.47V6.00199L113.486 4.10431V11.4744Z" fill="black"/>
<path d="M127.564 23.4343C127.564 24.0815 127.609 24.6773 127.697 25.2216C127.8 25.7512 127.94 26.2587 128.116 26.7442C128.66 28.2153 129.528 29.3259 130.72 30.0762C131.926 30.8117 133.287 31.1795 134.802 31.1795C135.994 31.1795 137.149 31.0177 138.267 30.694C139.399 30.3557 140.583 29.8334 141.819 29.1273L143.474 31.9297C141.974 32.9595 140.466 33.7244 138.951 34.2246C137.435 34.7248 135.861 34.9749 134.228 34.9749C132.684 34.9749 131.249 34.7174 129.926 34.2025C128.616 33.6877 127.484 32.9227 126.527 31.9077C125.586 30.8926 124.843 29.6275 124.299 28.1123C123.769 26.5971 123.504 24.8318 123.504 22.8164C123.504 21.1835 123.732 19.6462 124.188 18.2046C124.644 16.7482 125.321 15.4831 126.218 14.4092C127.13 13.3206 128.256 12.46 129.595 11.8275C130.933 11.1949 132.493 10.8786 134.273 10.8786C135.994 10.8786 137.428 11.1434 138.575 11.673C139.738 12.1879 140.679 12.8793 141.4 13.7472C142.135 14.6004 142.687 15.5787 143.055 16.682C143.437 17.7853 143.702 18.9107 143.849 20.0581C143.923 20.6171 143.967 21.1835 143.982 21.7572C144.011 22.331 144.026 22.89 144.026 23.4343H127.564ZM133.986 14.3209C133.029 14.3209 132.191 14.4607 131.47 14.7402C130.764 15.005 130.161 15.3948 129.661 15.9097C129.161 16.4099 128.756 17.0277 128.447 17.7633C128.153 18.4988 127.932 19.3226 127.785 20.2347H139.635C139.576 19.3814 139.436 18.5944 139.215 17.8736C139.009 17.1528 138.686 16.5276 138.244 15.998C137.803 15.4684 137.237 15.0565 136.545 14.7623C135.854 14.468 135.001 14.3209 133.986 14.3209Z" fill="black"/>
<path d="M153.514 23.4343C153.514 24.0815 153.558 24.6773 153.647 25.2216C153.75 25.7512 153.889 26.2587 154.066 26.7442C154.61 28.2153 155.478 29.3259 156.67 30.0762C157.876 30.8117 159.237 31.1795 160.752 31.1795C161.944 31.1795 163.098 31.0177 164.216 30.694C165.349 30.3557 166.533 29.8334 167.769 29.1273L169.424 31.9297C167.923 32.9595 166.416 33.7244 164.9 34.2246C163.385 34.7248 161.811 34.9749 160.178 34.9749C158.634 34.9749 157.199 34.7174 155.875 34.2025C154.566 33.6877 153.433 32.9227 152.477 31.9077C151.536 30.8926 150.793 29.6275 150.248 28.1123C149.719 26.5971 149.454 24.8318 149.454 22.8164C149.454 21.1835 149.682 19.6462 150.138 18.2046C150.594 16.7482 151.271 15.4831 152.168 14.4092C153.08 13.3206 154.206 12.46 155.544 11.8275C156.883 11.1949 158.442 10.8786 160.222 10.8786C161.944 10.8786 163.378 11.1434 164.525 11.673C165.687 12.1879 166.629 12.8793 167.35 13.7472C168.085 14.6004 168.637 15.5787 169.005 16.682C169.387 17.7853 169.652 18.9107 169.799 20.0581C169.873 20.6171 169.917 21.1835 169.931 21.7572C169.961 22.331 169.976 22.89 169.976 23.4343H153.514ZM159.936 14.3209C158.979 14.3209 158.141 14.4607 157.42 14.7402C156.714 15.005 156.111 15.3948 155.611 15.9097C155.11 16.4099 154.706 17.0277 154.397 17.7633C154.103 18.4988 153.882 19.3226 153.735 20.2347H165.584C165.526 19.3814 165.386 18.5944 165.165 17.8736C164.959 17.1528 164.636 16.5276 164.194 15.998C163.753 15.4684 163.187 15.0565 162.495 14.7623C161.804 14.468 160.951 14.3209 159.936 14.3209Z" fill="black"/>
<path d="M176.509 30.3833C176.509 29.8173 176.618 29.2838 176.836 28.7831C177.075 28.2606 177.391 27.8142 177.783 27.4441C178.174 27.0522 178.621 26.7474 179.122 26.5297C179.644 26.2902 180.199 26.1705 180.787 26.1705C181.353 26.1705 181.887 26.2902 182.387 26.5297C182.91 26.7474 183.356 27.0522 183.726 27.4441C184.118 27.8142 184.423 28.2606 184.641 28.7831C184.88 29.2838 185 29.8173 185 30.3833C185 30.9712 184.88 31.5264 184.641 32.0489C184.423 32.5714 184.118 33.0395 183.726 33.4532C183.356 33.8451 182.91 34.1499 182.387 34.3676C181.887 34.6071 181.353 34.7268 180.787 34.7268C180.199 34.7268 179.644 34.6071 179.122 34.3676C178.621 34.1499 178.174 33.8451 177.783 33.4532C177.391 33.0395 177.075 32.5714 176.836 32.0489C176.618 31.5264 176.509 30.9712 176.509 30.3833Z" fill="#03BF62"/>
</svg>
