<svg width="250" height="48" viewBox="0 0 250 48" fill="none" xmlns="http://www.w3.org/2000/svg">
<path d="M0 0H13.4782V16.1918C14.5517 15.6749 15.655 15.2773 16.7882 14.999C17.9213 14.7207 19.0842 14.5816 20.277 14.5816C22.5631 14.5816 24.6803 15.009 26.6285 15.8638C28.5767 16.7186 30.2565 17.8815 31.6679 19.3526C33.0794 20.8237 34.1827 22.5433 34.9778 24.5113C35.7929 26.4794 36.2004 28.5667 36.2004 30.7733C36.2004 32.9998 35.8028 35.0971 35.0077 37.0652C34.2324 39.0332 33.139 40.7528 31.7276 42.2239C30.3161 43.6751 28.6363 44.8281 26.6881 45.6829C24.7399 46.5178 22.6029 46.9353 20.277 46.9353C19.0246 46.9353 17.8318 46.816 16.6987 46.5775C15.5656 46.3389 14.4921 46.001 13.4782 45.5636V46.3986H4.32377V8.17044H0V0ZM19.6508 22.8116C18.3388 22.8116 17.1559 23.1098 16.1023 23.7062C15.0686 24.3026 14.1939 25.1574 13.4782 26.2707V35.5146C14.1144 36.4688 14.9593 37.2441 16.0129 37.8405C17.0864 38.417 18.2791 38.7052 19.5912 38.7052C20.605 38.7052 21.5692 38.5263 22.4836 38.1685C23.3981 37.7908 24.1933 37.264 24.8692 36.5881C25.5649 35.8923 26.1116 35.0673 26.5092 34.1131C26.9068 33.139 27.1056 32.0456 27.1056 30.833C27.1056 29.6005 26.9068 28.4872 26.5092 27.4932C26.1116 26.4993 25.5749 25.6544 24.899 24.9586C24.2231 24.2628 23.4279 23.736 22.5134 23.3782C21.6189 23.0005 20.6647 22.8116 19.6508 22.8116Z" fill="white"/>
<path d="M39.7787 0H53.7043V18.3686C54.8771 17.2951 56.1594 16.4602 57.5509 15.8638C58.9624 15.2475 60.513 14.9394 62.2027 14.9394C65.9202 14.9394 68.7629 15.9831 70.731 18.0704C72.699 20.1379 73.6831 23.1695 73.6831 27.1652V38.2281H78.2156V46.3986H64.4093V29.2526C64.4093 27.5231 63.9819 26.1613 63.1271 25.1673C62.2723 24.1734 61.169 23.6764 59.8172 23.6764C58.9226 23.6764 57.9485 23.9249 56.8949 24.4219C55.8413 24.9189 54.7777 25.6445 53.7043 26.5987V38.2281H58.2368V46.3986H39.7787V38.2281H44.5498V8.17044H39.7787V0Z" fill="white"/>
<path d="M100.55 43.5359C99.3772 44.6293 98.0751 45.5239 96.6438 46.2197C95.2324 46.9154 93.6221 47.2633 91.8131 47.2633C90.3023 47.2633 88.9107 47.0248 87.6384 46.5477C86.386 46.0706 85.3026 45.4245 84.3881 44.6094C83.4737 43.7745 82.758 42.8103 82.2412 41.717C81.7442 40.6236 81.4957 39.4606 81.4957 38.2281C81.4957 36.9161 81.6845 35.7531 82.0622 34.7393C82.4598 33.7254 82.9767 32.8507 83.6128 32.1152C84.2689 31.3598 85.0243 30.7336 85.8791 30.2366C86.7538 29.7197 87.6583 29.3122 88.5926 29.014C89.5468 28.6959 90.511 28.4773 91.4851 28.358C92.4791 28.2188 93.4233 28.1493 94.3179 28.1493C95.7492 28.1493 96.9519 28.199 97.926 28.2984C98.9001 28.3779 99.7847 28.4971 100.58 28.6562L100.61 26.1216C100.61 25.0282 100.451 24.0839 100.133 23.2887C99.8146 22.4737 99.3673 21.8077 98.7908 21.2909C98.2143 20.7541 97.5185 20.3565 96.7034 20.0981C95.9083 19.8397 95.0137 19.7104 94.0197 19.7104C93.0854 19.7104 92.1908 19.78 91.336 19.9192C90.4812 20.0385 89.6761 20.2074 88.9206 20.4261C88.1851 20.6249 87.4993 20.8635 86.8631 21.1418C86.2469 21.4002 85.7201 21.6785 85.2827 21.9767L83.4637 18.13C84.1993 17.6529 85.0044 17.2156 85.8791 16.818C86.7538 16.4005 87.6682 16.0526 88.6225 15.7743C89.5965 15.4761 90.5806 15.2475 91.5745 15.0885C92.5884 14.9096 93.5824 14.8201 94.5565 14.8201C96.3456 14.8201 97.9558 15.0388 99.3872 15.4761C100.818 15.8936 102.031 16.5496 103.025 17.4442C104.019 18.3388 104.784 19.4818 105.321 20.8734C105.858 22.2451 106.126 23.8951 106.126 25.8234L106.096 41.2697H109.526V46.3986H100.55V43.5359ZM93.0357 42.6115C93.7712 42.6115 94.5068 42.5221 95.2423 42.3432C95.9778 42.1642 96.6736 41.9257 97.3296 41.6275C97.9857 41.3094 98.592 40.9516 99.1486 40.554C99.7052 40.1365 100.172 39.7091 100.55 39.2718L100.58 32.2941H94.139C93.0655 32.2941 92.0815 32.4134 91.1869 32.6519C90.3122 32.8905 89.5468 33.2384 88.8908 33.6956C88.2547 34.1528 87.7577 34.7194 87.3999 35.3953C87.042 36.0712 86.8631 36.8465 86.8631 37.7212C86.8631 38.5363 87.0122 39.2519 87.3104 39.8682C87.6086 40.4646 88.0261 40.9715 88.5628 41.389C89.1194 41.7865 89.7755 42.0947 90.5309 42.3133C91.2863 42.5121 92.1212 42.6115 93.0357 42.6115Z" fill="white"/>
<path d="M138.003 22.0363H132.337V20.1279C131.681 20.1279 131.005 20.2571 130.31 20.5156C129.634 20.7541 128.998 21.1318 128.401 21.6487C127.805 22.1457 127.278 22.7918 126.821 23.5869C126.383 24.3622 126.065 25.2866 125.867 26.3601V41.2697H131.115V46.3986H115.788V41.2697H120.052L120.082 20.6348H115.788V15.5059H125.658V19.7701C126.016 19.1339 126.413 18.5475 126.851 18.0108C127.308 17.4541 127.805 16.977 128.342 16.5794C128.898 16.162 129.504 15.8439 130.161 15.6252C130.836 15.3867 131.562 15.2674 132.337 15.2674C133.371 15.2674 134.345 15.2674 135.26 15.2674C136.174 15.2674 137.088 15.2873 138.003 15.327V22.0363Z" fill="white"/>
<path d="M153.36 15.5059H160.606V20.0086H153.3L153.211 37.8405C153.211 39.0531 153.35 40.0372 153.628 40.7926C153.906 41.548 154.354 42.0748 154.97 42.373C155.586 42.6513 156.282 42.7905 157.057 42.7905C157.892 42.7905 158.628 42.7209 159.264 42.5817C159.9 42.4227 160.596 42.1642 161.351 41.8064L162.634 45.5338C161.679 46.0308 160.675 46.4184 159.622 46.6968C158.568 46.9949 157.326 47.144 155.894 47.144C154.543 47.144 153.36 46.9751 152.346 46.6371C151.352 46.319 150.507 45.7724 149.811 44.9971C149.135 44.2218 148.628 43.188 148.291 41.8959C147.953 40.5838 147.784 38.9537 147.784 37.0055L147.873 20.0086H142.953V15.5059H147.933V8.1108L153.36 5.54636V15.5059Z" fill="white"/>
<path d="M172.384 31.6679C172.384 32.5426 172.444 33.3477 172.563 34.0833C172.702 34.7989 172.891 35.4848 173.13 36.1408C173.865 38.1287 175.038 39.6296 176.649 40.6435C178.279 41.6374 180.117 42.1344 182.165 42.1344C183.775 42.1344 185.336 41.9158 186.847 41.4784C188.377 41.0212 189.978 40.3155 191.648 39.3613L193.884 43.1483C191.856 44.5398 189.819 45.5736 187.771 46.2495C185.723 46.9254 183.596 47.2633 181.39 47.2633C179.302 47.2633 177.364 46.9154 175.575 46.2197C173.806 45.5239 172.275 44.4901 170.983 43.1185C169.711 41.7468 168.707 40.0372 167.971 37.9896C167.256 35.942 166.898 33.5565 166.898 30.833C166.898 28.6264 167.206 26.549 167.822 24.6008C168.438 22.6327 169.353 20.9231 170.565 19.4719C171.798 18.0008 173.319 16.8379 175.128 15.9831C176.937 15.1282 179.044 14.7008 181.449 14.7008C183.775 14.7008 185.714 15.0587 187.264 15.7743C188.835 16.4701 190.107 17.4044 191.081 18.5773C192.075 19.7303 192.82 21.0523 193.317 22.5433C193.834 24.0342 194.192 25.555 194.391 27.1056C194.49 27.861 194.55 28.6264 194.57 29.4017C194.61 30.177 194.629 30.9324 194.629 31.6679H172.384ZM181.062 19.3526C179.77 19.3526 178.636 19.5415 177.662 19.9192C176.708 20.277 175.893 20.8038 175.217 21.4996C174.541 22.1755 173.995 23.0104 173.577 24.0044C173.18 24.9984 172.881 26.1116 172.683 27.3441H188.695C188.616 26.1911 188.427 25.1276 188.129 24.1535C187.851 23.1794 187.413 22.3345 186.817 21.6189C186.22 20.9032 185.455 20.3466 184.521 19.949C183.586 19.5514 182.433 19.3526 181.062 19.3526Z" fill="white"/>
<path d="M207.452 31.6679C207.452 32.5426 207.511 33.3477 207.631 34.0833C207.77 34.7989 207.959 35.4848 208.197 36.1408C208.933 38.1287 210.106 39.6296 211.716 40.6435C213.346 41.6374 215.185 42.1344 217.232 42.1344C218.843 42.1344 220.403 41.9158 221.914 41.4784C223.445 41.0212 225.045 40.3155 226.715 39.3613L228.951 43.1483C226.924 44.5398 224.886 45.5736 222.838 46.2495C220.791 46.9254 218.664 47.2633 216.457 47.2633C214.37 47.2633 212.431 46.9154 210.642 46.2197C208.873 45.5239 207.342 44.4901 206.05 43.1185C204.778 41.7468 203.774 40.0372 203.038 37.9896C202.323 35.942 201.965 33.5565 201.965 30.833C201.965 28.6264 202.273 26.549 202.889 24.6008C203.506 22.6327 204.42 20.9231 205.633 19.4719C206.865 18.0008 208.386 16.8379 210.195 15.9831C212.004 15.1282 214.111 14.7008 216.517 14.7008C218.843 14.7008 220.781 15.0587 222.331 15.7743C223.902 16.4701 225.174 17.4044 226.148 18.5773C227.142 19.7303 227.888 21.0523 228.385 22.5433C228.902 24.0342 229.259 25.555 229.458 27.1056C229.558 27.861 229.617 28.6264 229.637 29.4017C229.677 30.177 229.697 30.9324 229.697 31.6679H207.452ZM216.129 19.3526C214.837 19.3526 213.704 19.5415 212.73 19.9192C211.775 20.277 210.96 20.8038 210.285 21.4996C209.609 22.1755 209.062 23.0104 208.644 24.0044C208.247 24.9984 207.949 26.1116 207.75 27.3441H223.763C223.683 26.1911 223.494 25.1276 223.196 24.1535C222.918 23.1794 222.481 22.3345 221.884 21.6189C221.288 20.9032 220.522 20.3466 219.588 19.949C218.654 19.5514 217.501 19.3526 216.129 19.3526Z" fill="white"/>
<path d="M238.526 41.0586C238.526 40.2936 238.673 39.5728 238.967 38.8961C239.291 38.19 239.717 37.5868 240.247 37.0866C240.776 36.5571 241.379 36.1452 242.056 35.8509C242.762 35.5273 243.513 35.3655 244.307 35.3655C245.072 35.3655 245.793 35.5273 246.469 35.8509C247.176 36.1452 247.779 36.5571 248.279 37.0866C248.808 37.5868 249.22 38.19 249.515 38.8961C249.838 39.5728 250 40.2936 250 41.0586C250 41.8529 249.838 42.6032 249.515 43.3093C249.22 44.0154 248.808 44.648 248.279 45.207C247.779 45.7366 247.176 46.1485 246.469 46.4427C245.793 46.7663 245.072 46.9282 244.307 46.9282C243.513 46.9282 242.762 46.7663 242.056 46.4427C241.379 46.1485 240.776 45.7366 240.247 45.207C239.717 44.648 239.291 44.0154 238.967 43.3093C238.673 42.6032 238.526 41.8529 238.526 41.0586Z" fill="#03BF62"/>
</svg>
